<svg version="1.0" xmlns="http://www.w3.org/2000/svg"
 width="350.000000pt" height="326.000000pt" viewBox="0 0 350.000000 326.000000"
 preserveAspectRatio="xMidYMid meet">

<g transform="translate(0.000000,326.000000) scale(0.100000,-0.100000)"
fill="#000000" stroke="none">
<path d="M1500 3199 c-226 -26 -467 -118 -681 -260 -122 -81 -323 -281 -403
-401 -111 -168 -194 -363 -231 -543 -171 -841 347 -1639 1186 -1827 90 -20
131 -23 309 -23 220 0 274 7 444 57 264 78 541 257 714 461 184 216 295 443
353 720 32 148 32 417 1 572 -25 128 -64 247 -116 360 l-37 79 -35 -35 -35
-35 31 -68 c43 -96 87 -245 106 -360 21 -123 15 -401 -11 -515 -28 -124 -74
-250 -136 -372 -201 -390 -566 -664 -1001 -751 -158 -31 -407 -31 -555 0 -561
121 -994 541 -1122 1089 -42 181 -45 439 -6 623 87 418 374 793 751 983 219
110 415 157 656 158 168 0 294 -20 449 -71 198 -65 380 -171 525 -304 l71 -65
32 33 32 33 -78 72 c-319 295 -772 441 -1213 390z"/>
<path d="M1658 2969 c-25 -14 -23 -65 2 -79 51 -27 95 36 50 72 -25 21 -29 21
-52 7z"/>
<path d="M1172 2868 c-15 -15 -15 -51 0 -66 28 -28 78 -7 78 33 0 27 -18 45
-45 45 -12 0 -26 -5 -33 -12z"/>
<path d="M2132 2868 c-28 -28 -7 -78 33 -78 27 0 45 18 45 45 0 27 -18 45 -45
45 -12 0 -26 -5 -33 -12z"/>
<path d="M2670 2423 c-173 -170 -488 -478 -700 -687 l-385 -378 -252 258 -252
259 -51 -51 -51 -51 303 -306 303 -307 480 471 c264 259 600 588 748 732 147
144 267 266 267 272 0 11 -81 95 -91 95 -3 0 -147 -138 -319 -307z"/>
<path d="M766 2595 c-23 -23 -20 -52 8 -70 29 -19 54 -10 63 23 12 48 -37 81
-71 47z"/>
<path d="M2537 2589 c-32 -44 14 -94 59 -64 28 18 31 46 8 69 -21 22 -50 20
-67 -5z"/>
<path d="M492 2188 c-15 -15 -15 -51 0 -66 28 -28 78 -7 78 33 0 27 -18 45
-45 45 -12 0 -26 -5 -33 -12z"/>
<path d="M2812 2188 c-28 -28 -7 -78 33 -78 27 0 45 18 45 45 0 27 -18 45 -45
45 -12 0 -26 -5 -33 -12z"/>
<path d="M396 1705 c-33 -33 -13 -75 36 -75 20 0 31 7 37 23 18 46 -38 86 -73
52z"/>
<path d="M2905 1700 c-27 -30 -7 -70 34 -70 41 0 59 32 36 66 -19 29 -46 31
-70 4z"/>
<path d="M498 1229 c-27 -15 -24 -67 5 -78 46 -18 86 38 52 73 -19 18 -33 20
-57 5z"/>
<path d="M2818 1229 c-22 -12 -23 -52 -2 -73 19 -20 24 -20 52 0 26 18 28 46
6 68 -18 18 -32 20 -56 5z"/>
<path d="M758 804 c-14 -31 -1 -57 31 -62 28 -4 51 14 51 42 0 50 -62 65 -82
20z"/>
<path d="M2536 808 c-13 -19 -14 -25 -2 -43 25 -38 86 -27 86 16 0 23 -26 49
-50 49 -10 0 -26 -10 -34 -22z"/>
<path d="M1178 549 c-27 -15 -24 -67 5 -78 46 -18 86 38 52 73 -19 18 -33 20
-57 5z"/>
<path d="M2136 544 c-41 -40 6 -101 53 -68 11 8 21 24 21 34 0 22 -25 50 -45
50 -7 0 -21 -7 -29 -16z"/>
<path d="M1652 448 c-7 -7 -12 -21 -12 -33 0 -12 5 -26 12 -33 28 -28 78 -7
78 33 0 27 -18 45 -45 45 -12 0 -26 -5 -33 -12z"/>
</g>
</svg>
